<?xml version="1.0" encoding="UTF-8"?>
<!DOCTYPE svg PUBLIC "-//W3C//DTD SVG 1.1//EN" "http://www.w3.org/Graphics/SVG/1.1/DTD/svg11.dtd">
<!-- Creator: CorelDRAW 2019 (64-Bit) -->
<svg xmlns="http://www.w3.org/2000/svg" xml:space="preserve" width="105.706mm" height="180.838mm" version="1.1" style="shape-rendering:geometricPrecision; text-rendering:geometricPrecision; image-rendering:optimizeQuality; fill-rule:evenodd; clip-rule:evenodd"
viewBox="0 0 6832.07 11688.09"
 xmlns:xlink="http://www.w3.org/1999/xlink"
 xmlns:xodm="http://www.corel.com/coreldraw/odm/2003">
 <defs>
  <style type="text/css">
   <![CDATA[
    .fil5 {fill:#2A3636;fill-rule:nonzero}
    .fil1 {fill:#344444;fill-rule:nonzero}
    .fil2 {fill:#3E4E4E;fill-rule:nonzero}
    .fil4 {fill:#AD8B35;fill-rule:nonzero}
    .fil3 {fill:#CBA43E;fill-rule:nonzero}
    .fil7 {fill:#F55C4D;fill-rule:nonzero}
    .fil0 {fill:#FECD4E;fill-rule:nonzero}
    .fil6 {fill:#FED260;fill-rule:nonzero}
   ]]>
  </style>
 </defs>
 <g id="Слой_x0020_1">
  <metadata id="CorelCorpID_0Corel-Layer"/>
  <path class="fil0" d="M6727.85 4364.58l-608.11 -483.07c-19.34,-15.31 -40.36,-26.56 -61.94,-35.94l0 -2067.38c0,-982.09 -818.31,-1778.18 -1827.8,-1778.18l-1627.89 0c-1009.49,0 -1827.85,796.1 -1827.85,1778.18l0 2067.38c-21.57,9.38 -42.61,20.64 -61.89,35.94l-608.15 483.07c-119.22,94.71 -139.1,268.12 -44.42,387.33l3.49 4.4c94.69,119.21 268.09,139.04 387.31,44.4l323.65 -257.11 0 5366.28c0,982.1 818.36,1778.2 1827.85,1778.2l1627.89 0c1009.49,0 1827.8,-796.1 1827.8,-1778.2l0 -5366.28 323.65 257.11c119.25,94.64 292.68,74.81 387.38,-44.4l3.42 -4.4c94.71,-119.21 74.81,-292.63 -44.4,-387.33z"/>
  <path class="fil1" d="M5235.4 3275.74c-315.63,-93.65 -894.34,-208.55 -1803.56,-191.26l-21.38 0c-909.2,-17.29 -1487.94,97.62 -1803.53,191.26 -173.38,51.43 -278.44,225.96 -243.84,403.5l230.15 1181.05c36.89,189.28 219.37,314.15 408.66,277.4 575.4,-111.75 2263.11,-111.75 2838.52,0 189.28,36.75 371.78,-88.11 408.66,-277.4l230.12 -1181.05c34.64,-177.53 -70.45,-352.06 -243.8,-403.5z"/>
  <path class="fil2" d="M4749.27 4649.36c-19.58,0 -39.41,-1.42 -59.38,-4.28 -257.16,-37.62 -762.94,-56.41 -1268.72,-56.41 -505.77,0 -1011.55,18.79 -1268.73,56.41 -19.95,2.86 -39.8,4.28 -59.37,4.28 -146.49,0 -276.89,-78.59 -305.99,-190.82l-205.71 -794.12c-30.93,-119.38 62.98,-236.79 217.96,-271.36 262.97,-58.64 730.16,-129.76 1450.53,-129.76 52.54,0 106.44,0.43 161.72,1.18l19.16 0c55.27,-0.76 109.19,-1.18 161.74,-1.18 720.23,0 1187.59,71.12 1450.47,129.76 155.02,34.57 248.91,151.97 218.02,271.36l-205.77 794.12c-29.03,112.22 -159.43,190.82 -305.93,190.82z"/>
  <path class="fil3" d="M4906.84 5144.08c-21.89,0 -44.16,-2.05 -66.42,-6.4 -287.71,-55.84 -853.49,-83.76 -1419.26,-83.76l0 0c565.78,0 1131.56,27.91 1419.26,83.76 22.26,4.35 44.53,6.4 66.42,6.4l0 0z"/>
  <path class="fil4" d="M1610.11 4919.24c-7.21,-18.84 -12.9,-38.55 -16.87,-58.96l-230.15 -1181.05c-0.7,-3.61 -1.34,-7.16 -1.92,-10.75 0.58,3.59 1.22,7.14 1.92,10.75l230.15 1181.05c3.97,20.41 9.66,40.12 16.87,58.96l0 0zm3636.05 -45.39c1.05,-4.48 2.04,-9.03 2.93,-13.57l230.12 -1181.05c0.07,-0.32 0.12,-0.62 0.19,-0.94 -0.07,0.32 -0.12,0.61 -0.19,0.94l-230.12 1181.05c-0.89,4.54 -1.87,9.09 -2.93,13.57zm233.3 -1195.99c0.06,-0.17 0.06,-0.3 0.12,-0.5 -0.06,0.19 -0.06,0.32 -0.12,0.5zm0.25 -1.18l0 -0.05 0 0.05z"/>
  <path class="fil5" d="M1935.49 5144.08c-143.8,0 -273.73,-89.96 -325.38,-224.84 -7.21,-18.84 -12.9,-38.55 -16.87,-58.96l-230.15 -1181.05c-0.7,-3.61 -1.34,-7.16 -1.92,-10.75 -11.42,-70.33 -0.1,-139.42 27.51,-200.6l204.55 1049.67c32.54,166.95 178.37,283.86 342.24,283.86 21.89,0 44.12,-2.11 66.42,-6.41 287.69,-55.89 853.47,-83.82 1419.26,-83.82 565.78,0 1131.56,27.92 1419.26,83.82 22.33,4.3 44.53,6.41 66.42,6.41 163.85,0 309.72,-116.91 342.24,-283.86l204.56 -1049.67c28.66,63.54 39.73,135.56 26.05,208.75l0 0.05c-0.05,0.25 -0.05,0.49 -0.12,0.69 -0.06,0.19 -0.06,0.32 -0.12,0.5 0,0.12 0,0.25 -0.06,0.44 -0.07,0.32 -0.12,0.61 -0.19,0.94l-230.12 1181.05c-0.89,4.54 -1.87,9.09 -2.93,13.57 -37.62,159.67 -179.94,270.29 -339.32,270.22 -21.89,0 -44.16,-2.05 -66.42,-6.4 -287.71,-55.84 -853.49,-83.76 -1419.26,-83.76l0 0c-565.79,0 -1131.57,27.91 -1419.26,83.76l0 0c-22.32,4.35 -44.53,6.4 -66.42,6.4z"/>
  <path class="fil1" d="M1278.3 4475.64l204.36 817.43c3.17,12.67 4.78,25.68 4.78,38.74l0 3080.05c0,32.39 -5.95,64.47 -17.57,94.75l-191.04 497.51c-27.29,71.07 -132.78,51.22 -132.43,-24.87l24.94 -4490.69c0.32,-63.91 91.48,-74.93 106.97,-12.92z"/>
  <path class="fil3" d="M1258.15 9033.35c0.06,0 0.11,-0.09 0.16,-0.09 -0.05,0 -0.1,0.09 -0.16,0.09zm0.5 -0.37c0.07,-0.07 0.16,-0.12 0.26,-0.26 -0.11,0.14 -0.19,0.19 -0.26,0.26zm0.46 -0.39c0.14,-0.12 0.26,-0.25 0.39,-0.37 -0.12,0.12 -0.26,0.25 -0.39,0.37zm0.46 -0.44c2.38,-2.04 4.67,-4.27 6.78,-6.79 -2.11,2.52 -4.4,4.74 -6.78,6.79zm6.82 -6.89c0.14,-0.05 0.23,-0.17 0.32,-0.32 -0.09,0.14 -0.17,0.26 -0.32,0.32zm0.46 -0.49c0.05,-0.07 0.16,-0.19 0.23,-0.25 -0.07,0.06 -0.17,0.18 -0.23,0.25zm0.42 -0.52c0.05,-0.05 0.11,-0.12 0.12,-0.17 -0.01,0.05 -0.07,0.12 -0.12,0.17zm0.41 -0.54c0.03,0 0.05,0 0.05,0 0,0 -0.02,0 -0.05,0zm219.76 -3691.9c0,-12.89 -1.56,-25.69 -4.61,-38.18 3.05,12.49 4.61,25.29 4.61,38.18zm-4.78 -38.74l-204.36 -817.43c-7.03,-28.11 -29.54,-41.17 -52.13,-41.17 -27.29,0 -54.68,19.16 -54.83,54.09 0.16,-35.01 27.55,-54.09 54.83,-54.09 22.6,0 45.1,13.06 52.13,41.17l204.36 817.43z"/>
  <path class="fil5" d="M1215.92 9048.08c-27.67,0 -55.33,-16.05 -65.36,-44.64l190.78 -496.83c11.61,-30.28 17.55,-62.36 17.55,-94.75l0 -3080.05c0,-13.06 -1.6,-26.07 -4.76,-38.74l-183.13 -732.49 0.32 -72.02 0 0c0.16,-34.93 27.55,-54.09 54.83,-54.09 22.6,0 45.1,13.06 52.13,41.17l204.36 817.43c0.05,0.17 0.11,0.37 0.16,0.56 3.05,12.49 4.61,25.29 4.61,38.18l0 3080.05c0,0.74 0,1.48 0,2.24 -0.3,31.64 -6.22,62.98 -17.57,92.52l0 0 -191.04 497.51c-2.9,7.53 -6.66,14.03 -11.09,19.58 0,0 -0.02,0 -0.05,0 -0.05,0.1 -0.16,0.26 -0.28,0.37 -0.01,0.05 -0.07,0.12 -0.12,0.17 -0.07,0.07 -0.14,0.19 -0.19,0.26 -0.07,0.06 -0.17,0.18 -0.23,0.25 -0.04,0.05 -0.09,0.12 -0.14,0.17 -0.09,0.14 -0.17,0.26 -0.32,0.32 0,0.07 -0.02,0.07 -0.04,0.1 -2.11,2.52 -4.4,4.74 -6.78,6.79 -0.02,0.07 -0.04,0.07 -0.07,0.07 -0.12,0.12 -0.25,0.25 -0.39,0.37 -0.07,0.07 -0.12,0.12 -0.19,0.12 -0.11,0.14 -0.19,0.19 -0.26,0.26 -0.12,0.12 -0.21,0.16 -0.34,0.28 -0.05,0 -0.1,0.09 -0.16,0.09 -12.18,9.99 -27.2,14.73 -42.23,14.73z"/>
  <path class="fil1" d="M5553.77 4475.64l-204.32 817.43c-3.17,12.67 -4.8,25.68 -4.8,38.74l0 3080.05c0,32.39 5.97,64.47 17.59,94.75l191.04 497.51c27.28,71.07 132.74,51.22 132.44,-24.87l-24.94 -4490.69c-0.32,-63.91 -91.46,-74.93 -107.01,-12.92z"/>
  <path class="fil3" d="M5344.65 5331.81c0,-12.89 1.55,-25.69 4.65,-38.18 -3.1,12.49 -4.65,25.29 -4.65,38.18zm4.8 -38.74l204.32 -817.43c7.01,-28.11 29.6,-41.17 52.17,-41.17 14.86,0 29.77,5.66 40.29,16.55 -10.52,-10.9 -25.43,-16.55 -40.29,-16.55 -22.58,0 -45.16,13.06 -52.17,41.17l-204.32 817.43z"/>
  <path class="fil5" d="M5616.07 9048.02c-25.63,0 -51.18,-13.75 -62.8,-43.89l-191.04 -497.51c-11.37,-29.54 -17.27,-60.88 -17.59,-92.52 0,-0.76 0,-1.5 0,-2.24l0 -3080.05c0,-12.89 1.55,-25.69 4.65,-38.18 0,-0.19 0.07,-0.39 0.14,-0.56l0 0 204.32 -817.43c7.01,-28.11 29.6,-41.17 52.17,-41.17 14.86,0 29.77,5.66 40.29,16.55 8.76,9 14.42,21.63 14.54,37.54l0.25 57.96 -186.66 746.55c-3.17,12.67 -4.72,25.68 -4.72,38.74l0 3080.05c0,32.39 5.9,64.47 17.53,94.75l191.07 497.51 1.82 2.98c-11.07,26.32 -37.56,40.91 -63.99,40.91z"/>
  <path class="fil1" d="M5374.56 10248.49c-72.89,-204.51 -130.89,-366.37 -173.99,-486.27 -47.26,-131.63 -195.56,-192.88 -323.84,-137.16 -247.72,107.5 -703.31,250.76 -1404.4,274.91 -701.09,-24.15 -1156.61,-167.41 -1404.38,-274.91 -128.32,-55.71 -276.57,5.53 -323.9,137.16 -43.08,119.89 -101.07,281.75 -173.97,486.27 -51.07,143.19 -17.68,306.61 93.08,410.76 527.32,495.89 3091.02,495.89 3618.32,0 110.79,-104.15 144.13,-267.56 93.08,-410.76z"/>
  <path class="fil3" d="M1566.36 10259.42c0.05,-0.12 0.07,-0.25 0.12,-0.36 -0.05,0.11 -0.08,0.23 -0.12,0.36zm3811.92 -0.12c-0.05,-0.07 -0.05,-0.12 -0.12,-0.19 0.07,0.07 0.07,0.12 0.12,0.19zm-3811.53 -1.11c0.11,-0.25 0.17,-0.51 0.28,-0.81 -0.11,0.3 -0.17,0.57 -0.28,0.81zm3811.16 0c-0.12,-0.25 -0.17,-0.56 -0.3,-0.81 0.13,0.25 0.18,0.57 0.3,0.81zm-3810.56 -1.67c0.09,-0.39 0.21,-0.69 0.3,-1.01 -0.08,0.32 -0.21,0.62 -0.3,1.01zm3810.01 0c-0.14,-0.32 -0.26,-0.63 -0.32,-0.95 0.05,0.32 0.17,0.63 0.32,0.95zm-3809.53 -1.52c0.14,-0.42 0.3,-0.85 0.45,-1.36 -0.16,0.51 -0.32,0.94 -0.45,1.36zm3809.02 0c-0.17,-0.42 -0.3,-0.85 -0.49,-1.36 0.19,0.51 0.32,0.94 0.49,1.36zm-3808.44 -1.71c0.14,-0.44 0.28,-0.89 0.44,-1.32 -0.16,0.44 -0.3,0.92 -0.44,1.32zm3807.83 0c-0.12,-0.41 -0.25,-0.83 -0.44,-1.25 0.19,0.43 0.32,0.81 0.44,1.25zm-3807.32 -1.52c0.17,-0.47 0.33,-0.98 0.52,-1.48 -0.19,0.5 -0.35,1.01 -0.52,1.48zm3806.82 0c-0.19,-0.47 -0.32,-0.98 -0.49,-1.48 0.17,0.5 0.3,1.01 0.49,1.48zm-3806.19 -1.8c0.16,-0.48 0.37,-0.99 0.53,-1.48 -0.16,0.49 -0.37,1 -0.53,1.48zm3805.57 0c-0.19,-0.48 -0.39,-0.99 -0.56,-1.48 0.17,0.49 0.37,1 0.56,1.48z"/>
  <path class="fil5" d="M5371.32 10525.01c-71.26,-199.99 -128.26,-359.19 -170.74,-477.19 -35.45,-98.62 -127.53,-157.74 -225.52,-157.74 -32.77,0 -66.17,6.58 -98.32,20.57 -247.72,107.5 -703.31,250.78 -1404.4,274.84 -701.09,-24.06 -1156.61,-167.34 -1404.38,-274.84 -32.17,-13.99 -65.59,-20.57 -98.35,-20.57 -97.96,0 -190.08,59.12 -225.54,157.74 -42.41,118.01 -99.44,277.2 -170.73,477.19 -32.43,-83.34 -35.43,-177.78 -6.96,-265.59 0.04,-0.12 0.07,-0.25 0.12,-0.36 0.07,-0.28 0.18,-0.56 0.26,-0.88 0.11,-0.25 0.17,-0.51 0.28,-0.81 0.08,-0.32 0.19,-0.61 0.32,-0.86 0.09,-0.39 0.21,-0.69 0.3,-1.01 0.05,-0.19 0.11,-0.3 0.18,-0.51 0.14,-0.42 0.3,-0.85 0.45,-1.36 0.06,-0.12 0.07,-0.25 0.13,-0.35 0.14,-0.41 0.28,-0.89 0.44,-1.32 0.01,-0.07 0.05,-0.12 0.07,-0.19 0.17,-0.47 0.33,-0.98 0.52,-1.48 0.04,-0.07 0.07,-0.19 0.11,-0.32 0.16,-0.48 0.37,-0.99 0.53,-1.48l0 0c72.9,-204.51 130.89,-366.37 173.97,-486.27 35.46,-98.62 127.58,-157.74 225.58,-157.74 32.73,0 66.15,6.58 98.32,20.57 247.77,107.5 703.29,250.76 1404.38,274.91 701.09,-24.15 1156.69,-167.41 1404.4,-274.91 32.15,-13.99 65.55,-20.57 98.32,-20.57 97.93,0 190.07,59.12 225.52,157.74 43.09,119.89 101.1,281.75 173.99,486.27l0 0c0.17,0.49 0.37,1 0.56,1.48 0,0.12 0.05,0.25 0.12,0.32 0.17,0.5 0.3,1.01 0.49,1.48 0,0.07 0.06,0.19 0.06,0.26 0.19,0.43 0.32,0.85 0.44,1.25 0.07,0.1 0.12,0.23 0.12,0.35 0.19,0.51 0.32,0.94 0.49,1.36 0.07,0.21 0.12,0.39 0.19,0.57 0.05,0.32 0.17,0.63 0.32,0.95 0.05,0.25 0.18,0.54 0.25,0.86 0.13,0.25 0.18,0.57 0.3,0.81 0.07,0.32 0.19,0.6 0.25,0.92 0.07,0.07 0.07,0.12 0.12,0.19 28.48,87.86 25.5,182.37 -6.96,265.71z"/>
  <path class="fil6" d="M4558.44 9179.59l-2284.77 0c-252.39,0 -456.99,-204.56 -456.99,-456.95l0 -2877.43c0,-252.31 204.6,-456.95 456.99,-456.95l2284.77 0c252.39,0 456.96,204.63 456.96,456.95l0 2877.43c0,252.39 -204.57,456.95 -456.96,456.95z"/>
  <path class="fil6" d="M5576.33 2787.99c-24.55,0 -49.55,-6.64 -72.38,-21.13 -452.23,-286.84 -1479.84,-311.76 -1823.56,-311.76 -72.38,0 -114.41,1.04 -114.41,1.04l-378.43 0c0,0 -41.97,-1.04 -114.36,-1.04 -343.8,0 -1371.39,24.92 -1823.6,311.76 -22.83,14.49 -47.78,21.13 -72.39,21.13 -65.73,0 -129.02,-47.25 -143.1,-118.08 -194.17,-975.79 -59.9,-1384.7 -59.9,-1384.7l1056.7 -1037.68c0,0 731.7,-118 1200.93,-118 46.87,0 91.22,1.18 131.88,3.79l26.18 0c40.66,-2.61 84.94,-3.79 131.9,-3.79 469.15,0 1200.89,118 1200.89,118l1056.7 1037.68c0,0 134.24,408.91 -59.9,1384.7 -14.1,70.82 -77.41,118.08 -143.14,118.08z"/>
  <polygon class="fil0" points="902.64,6911.38 1688.03,6911.38 1688.03,6682.91 902.64,6682.91 "/>
  <polygon class="fil0" points="5158.04,6911.38 5943.44,6911.38 5943.44,6682.91 5158.04,6682.91 "/>
  <path class="fil7" d="M2287.8 11661.77c0,0 -280.84,-661.61 -999.61,-514.04 285.61,309.42 747.33,480.73 999.61,514.04z"/>
  <path class="fil7" d="M4551.17 11661.77c0,0 280.8,-661.61 999.55,-514.04 -285.59,309.42 -747.29,480.73 -999.55,514.04z"/>
  <path class="fil1" d="M2144.96 47.51c0,0 -71.37,655.7 -1242.32,1055.53 85.68,-447.4 728.27,-960.32 1242.32,-1055.53z"/>
  <path class="fil1" d="M4670.74 47.51c0,0 80.34,654.52 1251.26,1054.33 -85.68,-447.43 -737.21,-959.12 -1251.26,-1054.33z"/>
  <path class="fil1" d="M4490.66 7068.44l-2149.26 0c-155.71,0 -281.93,-126.22 -281.93,-281.92l0 -878.36c0,-155.76 126.22,-282 281.93,-282l2149.26 0c155.76,0 281.99,126.24 281.99,282l0 878.36c0,155.71 -126.23,281.92 -281.99,281.92z"/>
 </g>
</svg>
